<svg xmlns="http://www.w3.org/2000/svg" width="244.908" height="181.031" viewBox="0 0 244.908 181.031"><defs><style>.a{fill:#e3edf9;}.b{fill:#1a2d4f;}.c{fill:#fff;}.d{fill:#213e71;}.e{fill:#f36486;}.f{fill:#ba7269;}.g{fill:#d07d74;}.h{fill:#f8a2aa;}.i{fill:#4f66b9;}.j{fill:#f35d69;}</style></defs><g transform="translate(-3121.202 -1011.235)"><path class="a" d="M583.391-152.588a134.884,134.884,0,0,1-15.911,21.95l-.021.023-.2.224A64.441,64.441,0,0,1,518.2-109.132l-71.764-.94a217.346,217.346,0,0,1-45.875-20.543l-.044-.023C388.258-138.066,376-147.6,367.335-159.19c-7.384-9.868-12.151-21.3-12.105-34.281,0,0-3.715-46.032,74.293-48.627,35.647-4.163,29.583-46.5,106-44.957a69.382,69.382,0,0,1,7.609.536,65.989,65.989,0,0,1,11.859,2.6c19.871,6.445,33.768,22.131,40.481,42.2a87.634,87.634,0,0,1,3.065,11.859c4.341,23.676-.2,51.581-15.149,77.272" transform="translate(2766 1298.332)"/><path class="a" d="M595.477-241.713H554.991v-42.2c19.883,6.441,33.775,22.121,40.487,42.2" transform="translate(2766 1298.332)"/><path class="b" d="M571.748-159.184h-33q.072-10.952.14-21.908a8.032,8.032,0,0,1-1.735-1.3c-6.5-6.425.357-22.2,1.157-23.995q2.164,3.176,4.325,6.351h8.957q1.782-3.184,3.561-6.368a53.037,53.037,0,0,1,2.659,6.82,54.306,54.306,0,0,1,2.367,18.759c2.88.108,4.809,1.007,11.567,21.641" transform="translate(2766 1298.332)"/><path class="c" d="M541.316-190.917c0,.957-.133,1.735-.3,1.735s-.3-.777-.3-1.735.135-1.737.3-1.737.3.777.3,1.737" transform="translate(2766 1298.332)"/><path class="c" d="M550.123-190.917c0,.957-.135,1.735-.3,1.735s-.3-.777-.3-1.735.133-1.737.3-1.737.3.777.3,1.737" transform="translate(2766 1298.332)"/><path class="b" d="M449.274-159.182H429.018l7.961-32.047h20.257l-7.963,32.047" transform="translate(2766 1298.332)"/><path class="c" d="M497.727-177.269a3.433,3.433,0,0,1-3.48,3.869H389.73a4.436,4.436,0,0,1-4.3-3.869L378.5-242.4a3.433,3.433,0,0,1,3.479-3.869H486.5a4.435,4.435,0,0,1,4.3,3.869l6.928,65.132" transform="translate(2766 1298.332)"/><path class="b" d="M497.727-177.269a3.433,3.433,0,0,1-3.48,3.869H389.73a4.436,4.436,0,0,1-4.3-3.869L378.5-242.4a3.433,3.433,0,0,1,3.479-3.869H486.5a4.435,4.435,0,0,1,4.3,3.869l6.928,65.132" transform="translate(2766 1298.332)"/><path class="d" d="M394.1-178.258a4.438,4.438,0,0,1-4.3-3.871L383.9-237.541a3.433,3.433,0,0,1,3.479-3.869h94.745a4.437,4.437,0,0,1,4.3,3.869l5.893,55.412a3.433,3.433,0,0,1-3.479,3.871H394.1" transform="translate(2766 1298.332)"/><path class="e" d="M417.694-224.079H395.115l-.549-3.521h22.576l.552,3.521" transform="translate(2766 1298.332)"/><path class="c" d="M446.2-224.079H423.622l-.551-3.521h22.577l.549,3.521" transform="translate(2766 1298.332)"/><path class="c" d="M419.374-213.87H396.8l-.551-3.523h22.577l.549,3.523" transform="translate(2766 1298.332)"/><path class="c" d="M436.315-205.178H413.739l-.551-3.521h22.577l.549,3.521" transform="translate(2766 1298.332)"/><path class="c" d="M449.732-195.253H427.154l-.551-3.524h22.579l.551,3.524" transform="translate(2766 1298.332)"/><path class="e" d="M463.47-195.253H452.18l-.549-3.524h11.287l.552,3.524" transform="translate(2766 1298.332)"/><path class="e" d="M461.3-205.178H438.718l-.551-3.521h22.579l.551,3.521" transform="translate(2766 1298.332)"/><path class="f" d="M567.48-130.637l-.021.023-.2.224A64.441,64.441,0,0,1,518.2-109.132l-71.764-.94a217.346,217.346,0,0,1-45.875-20.543l-.044-.023H567.48" transform="translate(2766 1298.332)"/><path class="g" d="M583.395-152.59a134.469,134.469,0,0,1-15.94,21.965H400.576c-12.295-7.435-24.573-16.944-33.24-28.558H578.68l4.715,6.593" transform="translate(2766 1298.332)"/><path class="h" d="M513.117-205.191c-4.871,14.665-17.227,23.764-27.6,20.32S470.687-203,475.556-217.663s17.227-23.763,27.6-20.319,14.832,18.125,9.963,32.791" transform="translate(2766 1298.332)"/><path class="h" d="M514.112-176.672H493.135v-25.02h20.977v25.02" transform="translate(2766 1298.332)"/><path class="b" d="M473.98-211.079s-17.317-9.857-3.557-26.987c3.557-5.2,3.557,5.389,3.557,5.389s11.816-34.257,31.844-12.413c0,0,18.928,3.2,23.136,15.977,1.36,4.132.619,7.655-.125,11.448-.26,1.332-5.083,24.323-21.271,27.159-2.264.4-7.547.888-14.433-2.743L473.98-211.079" transform="translate(2766 1298.332)"/><path class="h" d="M491.084-202.466c.412,4.576-.8,8.425-2.7,8.6s-3.779-3.4-4.191-7.976.8-8.423,2.7-8.595,3.777,3.4,4.189,7.975" transform="translate(2766 1298.332)"/><path class="i" d="M558.471-113.152s-4.115,2.347-15.227,4.341c-12.717,2.283-34.585,4.1-69.914,1.392q-12.318-.922-26.873-2.657a165.526,165.526,0,0,1,9.444-28.007c9.087-20.767,25.432-45.988,51.771-48.985,26.016-2.963,38.876,21.5,45.129,43.073a162.112,162.112,0,0,1,5.671,30.842" transform="translate(2766 1298.332)"/><path class="h" d="M558.471-113.152s-4.115,2.347-15.227,4.341l-3.387-30.47,12.943-4.713a162.112,162.112,0,0,1,5.671,30.842" transform="translate(2766 1298.332)"/><path class="h" d="M477.487-130.625l-1.393,7.824a17.086,17.086,0,0,1-18.579,13.963q-5.346-.559-11.064-1.231c-12.505-1.393-36.577-36.625-36.577-36.625l-6.576,1.28c-2.139,7.581-3.743,9.508-4.908,9.443-2.463-.128-3.709-9.345-2.884-14.821A5.036,5.036,0,0,1,397-154.016a5.012,5.012,0,0,1,3.159-.988c1.376.129,2.057.209,2.349.227a11.745,11.745,0,0,0-2.349-.227c-.163-.017-.341-.032-.535-.049.729-6.415,4.763-11.744,10.319-13.607a15.376,15.376,0,0,1,10.983.713s1.588-1.005,5.411-.648,5.848,9.671,5.848,9.671l23.715,20.847c4.421,3.144,12.1,7.354,21.592,7.452" transform="translate(2766 1298.332)"/><path class="j" d="M402.5-153.658l-.2-.017a11.71,11.71,0,0,0-2.129-.211,1.093,1.093,0,0,1-1.135-1.1,1.121,1.121,0,0,1,1.1-1.135,14.335,14.335,0,0,1,2.531.24,1.132,1.132,0,0,1,.915,1.3,1.108,1.108,0,0,1-1.083.921" transform="translate(2766 1298.332)"/><path class="j" d="M450.02-126.021a1.133,1.133,0,0,1-.529-.133,1.121,1.121,0,0,1-.457-1.515l5.876-10.937a1.118,1.118,0,0,1,1.513-.456,1.118,1.118,0,0,1,.457,1.515l-5.875,10.937a1.119,1.119,0,0,1-.985.59" transform="translate(2766 1298.332)"/><path class="b" d="M539.859-138.442a.842.842,0,0,1-.823-.667l-4.224-20.075a.84.84,0,0,1,.649-.993.844.844,0,0,1,.995.649l4.224,20.073a.842.842,0,0,1-.649.995l-.172.017" transform="translate(2766 1298.332)"/><path class="b" d="M477.487-129.786a.841.841,0,0,1-.4-.1.838.838,0,0,1-.34-1.138l7.7-14.279a.842.842,0,0,1,1.137-.34.839.839,0,0,1,.34,1.136l-7.7,14.279a.834.834,0,0,1-.739.442" transform="translate(2766 1298.332)"/></g></svg>