<svg xmlns="http://www.w3.org/2000/svg" width="242.998" height="221.215" viewBox="0 0 242.998 221.215"><defs><style>.a{fill:#e3edf9;}.b{fill:#4f66b9;}.c{fill:#f89db1;}.d{fill:#1a2d4f;}.e{fill:#f35d69;}.f{fill:#f8a2aa;}.g{fill:#6b89ce;}.h{fill:#f5f6f9;}.i{fill:#d07d74;}.j{fill:#ba7269;}.k{fill:#fff;}</style></defs><g transform="translate(0)"><path class="a" d="M82.518-382.4c3.6,7.424,9.689,14.068,17.643,19.756,39.309,28.212,123.972,33.7,174.758,0a94.369,94.369,0,0,0,22-19.908c16.459-20.661,26.2-52.272,23.883-82.118-.956-12.257-2.391-27.76-13.641-41.224-22.7-27.131-64.577-20.989-66.692-20.637-29.32,4.757-29.823,22.248-72.229,49.127-47.163,29.923-74.016,25.695-85.593,52.423-5.309,12.231-6.619,29.143-.125,42.583" transform="translate(-78.138 560.6)"/><path class="b" d="M286.763-372.82l-9.837-44.151a36.942,36.942,0,0,0-20.116-25.292l-29.029-13.891L198-443.766a39.326,39.326,0,0,0-23.387,28.24L165.66-372.82h121.1" transform="translate(-131.287 560.6)"/><path class="c" d="M286.763-386.938s-7.764-10.179-11.5-9.531-10.632,12.825-10.632,12.825H233.842l-.865-7.792s-19.7,3.572-26.732,18.615H283.3l3.463-14.117" transform="translate(-171.872 560.6)"/><path class="d" d="M257.358-390.491a.944.944,0,0,0,.939-.848l2.673-26.283a.943.943,0,0,0-.843-1.035.947.947,0,0,0-1.035.843l-2.675,26.283a.944.944,0,0,0,.843,1.035l.1.005" transform="translate(-196.252 560.6)"/><path class="c" d="M234.125-460.59v20.453s1.461,12.663-6.656,11.527-16.728-23.556-16.728-23.556l1.34-19.9,22.044,11.472" transform="translate(-123.833 560.6)"/><path class="e" d="M210.854-456.67l23.079,14.8V-460.6l-22.021-11.476-1.057,15.4" transform="translate(-123.651 560.6)"/><path class="f" d="M194.536-474.934c6.053,15.635,19.82,24.879,30.751,20.648s14.884-20.336,8.831-35.972S214.3-515.136,203.367-510.9s-14.883,20.336-8.831,35.971" transform="translate(-107.518 560.6)"/><path class="d" d="M193.392-486.333a44.756,44.756,0,0,0,17.468-20.577s28.9,22.62,35.715,8.767-10.065-24.783-12.013-15.368c0,0-15.564-25.216-41.169-8.441s0,35.62,0,35.62" transform="translate(-109.063 560.6)"/><path class="f" d="M231.291-479.542c1.645,4.587,5.152,7.524,7.831,6.563s3.52-5.459,1.873-10.044-5.151-7.524-7.831-6.561-3.519,5.457-1.873,10.043" transform="translate(-151.15 560.6)"/><path class="g" d="M113.117-410.27v37.456h27.6V-410.27h-27.6" transform="translate(67.302 560.6)"/><path class="g" d="M106.467-391.414a5.917,5.917,0,0,1-5.921,5.9,5.873,5.873,0,0,1-4.555-2.149v7.943a12.189,12.189,0,0,0,4.555.856,12.557,12.557,0,0,0,12.57-12.552,12.572,12.572,0,0,0-12.57-12.571,12.19,12.19,0,0,0-4.555.857v7.943a5.869,5.869,0,0,1,4.555-2.149,5.919,5.919,0,0,1,5.921,5.92" transform="translate(112.027 560.6)"/><path class="h" d="M149.216-438.266c-3.394-5.184-8.334-9.376-10.825-15.049-3.425-7.8-1.622-16.985-4.237-25.095-3.792-11.764-15.78-18.693-22.808-28.861a39.117,39.117,0,0,1-3.008-38.411c2.663-5.536,6.848-10.543,12.437-13.089,6.628-3.02,14.705-2.171,20.942,1.591a29.253,29.253,0,0,1,12.609,17.208c4.839,17.293-4.518,35.937-.8,53.507,2.208,10.447,8.866,19.533,11.112,29.972a37.746,37.746,0,0,1-4.575,26.763c-1.374,2.335-5.2,9.709-7.243,4.636-.775-1.924-.3-4.288-.716-6.313a20.047,20.047,0,0,0-2.885-6.857" transform="translate(51.066 560.6)"/><path class="i" d="M97.8-362.647H313.646V-372.82H97.8v10.173" transform="translate(-90.314 560.6)"/><path class="j" d="M124.356-362.646c39.309,28.212,123.972,33.7,174.758,0H124.356" transform="translate(-102.334 560.6)"/><path class="k" d="M128.2-377.71a3.771,3.771,0,0,0,3.835,4.889H196a6.76,6.76,0,0,0,6.232-4.889L213.9-425.291a3.77,3.77,0,0,0-3.834-4.888H146.107a6.762,6.762,0,0,0-6.232,4.888L128.2-377.71" transform="translate(-20.969 560.6)"/><path class="a" d="M163.255-400.827a5.7,5.7,0,0,0,5.752,7.043,8.845,8.845,0,0,0,8.335-7.043,5.706,5.706,0,0,0-5.753-7.044,8.843,8.843,0,0,0-8.333,7.044" transform="translate(-19.46 560.6)"/></g></svg>