<svg xmlns="http://www.w3.org/2000/svg" width="266.164" height="179.398" viewBox="0 0 266.164 179.398"><defs><style>.a{fill:#e3edf9;}.b{fill:#4f66b9;}.c{fill:#1a2d4f;}.d{fill:#56c5aa;}.e{fill:#f36486;}.f{fill:#213e6f;}.g{fill:#f9a52f;}.h{fill:#fff;}.i{fill:#f8a2aa;}.j{fill:#f35d69;}</style></defs><g transform="translate(0)"><path class="a" d="M78.439-159.184c9.3,16.523,23.763,28.089,40.917,36.027l.243.114c22.921,10.528,50.605,14.61,77.3,15.389a422.829,422.829,0,0,0,69.3-4.18c19.438-2.705,32.316-5.7,32.8-5.848,1.425-.437,2.8-.972,2.8-.972,1.021-.373,2.041-.811,3.03-1.263l.081-.033.291-.145a47.889,47.889,0,0,0,19.163-16.085,46.483,46.483,0,0,0,8.294-28.883,82.269,82.269,0,0,0-9.411-34.892c-13.218-24.671-43.315-48.288-73.9-50.425-11.632-.811-27.927.6-44.417-9.655-3.788-2.356-5.043-3.191-8.567-5.424-5.041-3.195-30.891-19.58-61.73-16.128-7.564.845-32.8,4.831-50.836,25.957-24.635,28.852-19.565,71.208-5.361,96.446" transform="translate(-66.555 286.907)"/><path class="b" d="M181.239-137.72c2.673,5.944,5.233,10.917,7.241,14.563l.243.114c22.921,10.528,50.605,14.61,77.3,15.389,8.764.064,16.863-.324,24.153-.973,11.857-7.339,17.187-18.531,14.513-26.305a11.211,11.211,0,0,0-3.92-5.363c-17.721-13.477-46.248-13.835-52.192-29.239-3.953-10.271-13.883-38.909-20.055-56.84-1.911-5.541-15.939-20.233-32.672-19.456-13.915.633-23.311,12.247-24.233,13.413-20.848,26.549,1.847,77.3,9.621,94.7" transform="translate(-135.679 286.907)"/><path class="c" d="M235.943-129.582l.109-.007,25.177-3.328a.843.843,0,0,0,.724-.943.837.837,0,0,0-.943-.723l-25.177,3.328a.84.84,0,0,0-.723.943.842.842,0,0,0,.832.729" transform="translate(-164.346 286.907)"/><path class="d" d="M137.027-182.586c.862-22.2.551-50.191-6.807-51.775a3.041,3.041,0,0,0-2.017.225c-5.956,3.069.92,28.064,8.824,51.549" transform="translate(69.403 286.907)"/><path class="d" d="M105.3-182.586c10.855-19.032,16.089-22.489,18.814-21.643a3.308,3.308,0,0,1,2.04,2.165c1.883,6.147-16.037,16.716-20.854,19.477" transform="translate(101.134 286.907)"/><path class="d" d="M144.691-182.586S134.564-211.734,127.563-210s17.128,27.416,17.128,27.416" transform="translate(61.74 286.907)"/><path class="e" d="M111.877-151.266h27.714l2.454-33.931H109.423l2.453,33.931" transform="translate(81.251 286.907)"/><path class="c" d="M266.943-249.133s11.836-2.309,9.239-14.289-10.393-11.836-10.393-11.836-12.847-19.775-36.808-7.795-6.351,29.013-19.775,40.416-33.265,63.889,9.855,58.937l47.883-65.433" transform="translate(-136.605 286.907)"/><path class="f" d="M80.867-129.318c1.2,2.008,5.476,9.039,12.781,13.46,21.609,13.106,54.492-5.749,65.248-11.921a125.161,125.161,0,0,0,21.933-15.988l34.843,26.078a47.123,47.123,0,0,0,5.832-2.234l.08-.033.292-.145a47.9,47.9,0,0,0,19.162-16.085c-10.27-11.5-35.734-38.439-49.956-39.184-18.094-.956-64.811,23.812-64.811,23.812l-51.317-1.733a43.526,43.526,0,0,0,5.912,23.974" transform="translate(16.766 286.907)"/><path class="g" d="M213.853-220.841s20.593,12.509,19.631,17.321l-.963,4.812,19.728,47.152a135.877,135.877,0,0,1-23.865,5.773,135.837,135.837,0,0,1-26.96,1.283c-2.937-9.356-21.193-68.726-5.373-77.5a9.338,9.338,0,0,1,4.884-1.083l12.919,2.237" transform="translate(-109.208 286.907)"/><path class="h" d="M154.868-180.438l15.448-6.313a3.275,3.275,0,0,0,1.7-3.1v-39.613c0-2.172-1.555-3.729-3.1-3.1l-15.448,6.315a3.269,3.269,0,0,0-1.7,3.1v39.612c0,2.175,1.555,3.732,3.1,3.1" transform="translate(8.928 286.907)"/><path class="i" d="M157.28-192.186a112.981,112.981,0,0,0,23.407,22.647c1.993,1.425,3.856,2.64,5.541,3.692,11.144,6.949,15.583,6.788,17.316,6.609,15.777-1.652,23.115-27.895,23.5-29.319l10.643-.713s6.723-7.953,5.361-10.593-4.745-3.711-4.745-3.711,7.419-3.125,3.708-5.571c-3.708-2.463-13.865,2.024-13.865,2.024s1.069-6.22-4.616-3.321c-5.669,2.884-8.456,19.536-8.456,19.536-5.119,10.577-13.98,9.687-22.808,4.747-13.428-7.484-26.76-24.283-26.76-24.283l-8.229,18.256" transform="translate(-67.795 286.907)"/><path class="g" d="M211.742-189.977a101.981,101.981,0,0,0,10.875,10.1,101.987,101.987,0,0,0,15.652,10.333c3.257-4.633,8.116-11.567,11.583-16.62a66.125,66.125,0,0,1-16.264-14.788c-3.9-5.023-6.1-9.472-11.359-10.987-3.131-.9-7.408-.781-10.293,1.556-4.495,3.64-5.259,12.372-.193,20.4" transform="translate(-125.377 286.907)"/><path class="i" d="M179.45-220.173s1.308-6.827,8.953-1.293,10.869,7.9,9.473,10.255-9.911-2.749-9.911-2.749" transform="translate(-44.925 286.907)"/><path class="i" d="M184.518-203.5v.024a2.9,2.9,0,0,0,3.424-.763c1.9-2.215,1.723-7.181,1.723-7.181q-1.42-.64-2.841-1.276-1.154,4.6-2.305,9.2" transform="translate(-41.467 286.907)"/><path class="i" d="M190.438-202.982a1.753,1.753,0,0,0,1.812-.492v-.024a3.835,3.835,0,0,0,.851-1.275l.023-.044c1.3-2.865,1.432-7.877,1.432-7.877q-1.926-2.544-3.851-5.085-1.634,3.18-3.265,6.361s-.828,7.293,3,8.436" transform="translate(-49.199 286.907)"/><path class="i" d="M194.26-178.994l8.952-1.723-3.648-1.947c8.571-.38,9.6-21.573,9.6-21.573a2.9,2.9,0,0,1-3.424.763,1.753,1.753,0,0,1-1.812.492c-3.827-1.143-3-8.436-3-8.436l5.191-.941a5.5,5.5,0,0,0-.581-1.745l-8.257-6.02a6.287,6.287,0,0,0-2.171.112h-.089a6.476,6.476,0,0,0-4.833,6.424v.468c.089,12.287.447,17.88-2.216,19.111-.716.315-1.052.068-1.387.448-2.283,2.507,7.675,14.568,7.675,14.568" transform="translate(-62.689 286.907)"/><path class="j" d="M195.505-202.514l.255-.029a7.037,7.037,0,0,0,4.552-3.3,7.108,7.108,0,0,0-1.352-8.221,1.12,1.12,0,0,0-1.583-.048,1.12,1.12,0,0,0-.048,1.583,4.944,4.944,0,0,1,1.019,5.617,4.8,4.8,0,0,1-3.1,2.195,1.117,1.117,0,0,0-.833,1.344,1.118,1.118,0,0,0,1.089.863" transform="translate(-62.747 286.907)"/><path class="j" d="M195.6-209.133a3.457,3.457,0,0,0,1.4-.276,2.635,2.635,0,0,0,1.423-3.112,1.13,1.13,0,0,0-1.269-.945,1.121,1.121,0,0,0-.945,1.271c.045.312.035.676-.1.733-.293.127-1.22.291-3.444-.936a20.683,20.683,0,0,1-2.681-1.773,1.149,1.149,0,0,0-1.576.123,1.092,1.092,0,0,0,.076,1.533l.752-.828-.743.836a21.578,21.578,0,0,0,3.092,2.071,8.677,8.677,0,0,0,4.015,1.3" transform="translate(-53.885 286.907)"/><path class="j" d="M198.128-212.985a1.142,1.142,0,0,0,.484-.109,1.12,1.12,0,0,0,.524-1.495,12.432,12.432,0,0,0-7.685-6.392,9.732,9.732,0,0,0-1.461-.256,1.133,1.133,0,0,0-1.233.991,1.121,1.121,0,0,0,.992,1.233,8.362,8.362,0,0,1,1.144.2,10.222,10.222,0,0,1,6.225,5.2,1.125,1.125,0,0,0,1.011.635" transform="translate(-55.278 286.907)"/><path class="j" d="M227.92-185.041a1.121,1.121,0,0,0,.964-.547,1.12,1.12,0,0,0-.389-1.535c-.124-.073-12.559-7.567-19.287-19a1.118,1.118,0,0,0-1.532-.395,1.118,1.118,0,0,0-.4,1.532c7.024,11.939,19.541,19.471,20.069,19.787a1.114,1.114,0,0,0,.571.157" transform="translate(-103.447 286.907)"/><path class="i" d="M198.844-223.078c2.059,2.059,16.088,16.045,21.728,15.955a1.546,1.546,0,0,0,1.231-.447c1.7-2.328-10.025-13.271-10.025-13.271.2-.963.425-1.9.627-2.864l.851-3.849a26.881,26.881,0,0,0,3.356,2.843c1.9,1.388,6.289,4.341,9.891,4.453,6.736.179,11.257-13.381,11.257-13.381,1.073-.359,2.147-.695,3.244-1.053-.805-2.372-1.589-4.743-2.372-7.115,2.685-6.848,0-20.609,0-20.609l-1.164-4.388a30.294,30.294,0,0,1-14.813,12.285,30.255,30.255,0,0,1-17.813,1.052c-.872,4.476-1.768,8.929-2.64,13.405v.023c-.627,3.177-1.253,6.377-1.9,9.555-.469,2.46-.961,4.945-1.453,7.407" transform="translate(-107.126 286.907)"/><path class="i" d="M231.358-244.919c1.44,4.377,4.66,7.249,7.192,6.417s3.419-5.057,1.979-9.435-4.66-7.251-7.193-6.419-3.417,5.057-1.977,9.436" transform="translate(-139.168 286.907)"/><path class="j" d="M226.591-230.485,238.7-223.7l.851-3.849-11.055-12.485c-.627,3.177-1.253,6.377-1.9,9.555" transform="translate(-133.421 286.907)"/><path class="b" d="M133.077-127.061l2.008,4.018c22.921,10.528,50.605,14.61,77.3,15.389a422.829,422.829,0,0,0,69.3-4.18c-1.409-5.427-7.16-18.353-30.632-23.1a89.609,89.609,0,0,0-10.156-1.411c-40-3.288-107.818,9.283-107.818,9.283" transform="translate(-82.041 286.907)"/></g></svg>