<svg xmlns="http://www.w3.org/2000/svg" width="217.345" height="193.649" viewBox="0 0 217.345 193.649"><defs><style>.a{fill:#e3edf9;}.b{fill:#1a2d4f;}.c{fill:#f8a2aa;}.d{fill:#f35d69;}.e{fill:#f9a52f;}.f{fill:#4f66b9;}.g{fill:#d07d74;}.h{fill:#56c5aa;}.i{fill:#f36486;}.j{fill:#fff;}.k{fill:#ba7269;}</style></defs><g transform="translate(-3134.983 -756.532)"><path class="a" d="M586.319-412.619c.479,17.944-17.465,35.284-37.448,47.037a135.191,135.191,0,0,1-21.015,10.091c-21.871,8.18-40.268,7.551-53.857,7.123a4.424,4.424,0,0,0-.579-.025c-.428-.025-.881-.025-1.308-.049-22.5-.932-45.276-5.789-65.308-16.284-.529-.276-1.057-.553-1.587-.855-17.264-9.237-34.5-22.424-36.115-43.439a43.5,43.5,0,0,1,8.683-29.144c6.72-8.933,16.535-13.943,25.395-20.411,6.24-4.555,9.009-11.148,11.928-17.993a146.134,146.134,0,0,1,6.8-13.993c1.408-2.465,2.868-4.856,4.479-7.2,11.251-16.384,29.873-28.388,49.6-31.208,20.561-2.919,40.192,6.669,53.656,22.1A71.323,71.323,0,0,1,545.775-474c1.988,9.891-.049,22.273,7.651,30.024,8.935,8.985,21.769,6.317,29.044,17.516a25.987,25.987,0,0,1,3.849,13.843" transform="translate(2766 1298.332)"/><path class="b" d="M513.917-448.51c18.265-15.649,23.695-44.221,11.2-62.608-7.2-10.6-18.3-14.785-23.756-16.4-2.265-3.3-8.011-10.639-17.74-13.312-16.968-4.66-31.693,8.811-33.773,10.715-19.5,17.836-26.833,61.4-.216,82.684,17.293,13.827,45.48,15.028,64.284-1.083" transform="translate(2766 1298.332)"/><path class="c" d="M490.508-474.479v25.82H469.57v-25.82h20.939" transform="translate(2766 1298.332)"/><path class="d" d="M490.508-474.479v12.432c-11.048.805-17.365-.629-20.939-2.819v-9.613h20.939" transform="translate(2766 1298.332)"/><path class="c" d="M511.192-489.987c-2,5.316-6.855,8.408-10.848,6.908s-5.615-7.025-3.619-12.341,6.853-8.408,10.848-6.908,5.615,7.025,3.619,12.341" transform="translate(2766 1298.332)"/><path class="c" d="M452.25-489.987c2,5.316,6.853,8.408,10.847,6.908s5.615-7.025,3.619-12.341-6.853-8.408-10.848-6.908-5.615,7.025-3.617,12.341" transform="translate(2766 1298.332)"/><path class="c" d="M501.2-494.912c3.369,9.265-7.26,27.76-20.859,27.76-11.521,0-20.861-12.428-20.861-27.76,0-16.7,16.76-29.795,20.861-27.759,1.648.819.295,3.593,1.779,8.36,3.541,11.367,16.211,11.505,19.08,19.4" transform="translate(2766 1298.332)"/><path class="e" d="M538.816-376.076H419.338V-399.35a59.739,59.739,0,0,1,59.74-59.74,59.739,59.739,0,0,1,59.738,59.74v23.273" transform="translate(2766 1298.332)"/><path class="f" d="M523.72-413.212v37.456h32.9v-37.456h-32.9" transform="translate(2766 1298.332)"/><path class="f" d="M567.095-394.358a5.917,5.917,0,0,1-5.92,5.9,5.869,5.869,0,0,1-4.555-2.149v7.943a12.191,12.191,0,0,0,4.555.857,12.557,12.557,0,0,0,12.571-12.553,12.572,12.572,0,0,0-12.571-12.569,12.191,12.191,0,0,0-4.555.856v7.943a5.869,5.869,0,0,1,4.555-2.149,5.92,5.92,0,0,1,5.92,5.92" transform="translate(2766 1298.332)"/><path class="g" d="M580.612-365.583H380.074v-10.173H580.612v10.173" transform="translate(2766 1298.332)"/><path class="h" d="M414.492-398.832c-.688-17.769-.44-40.176,5.449-41.444a2.434,2.434,0,0,1,1.615.181c4.768,2.457-.737,22.464-7.064,41.263" transform="translate(2766 1298.332)"/><path class="h" d="M414.492-398.832c-8.688-15.233-12.879-18-15.06-17.324a2.647,2.647,0,0,0-1.632,1.733c-1.508,4.919,12.837,13.381,16.692,15.591" transform="translate(2766 1298.332)"/><path class="h" d="M414.492-398.832s8.107-23.332,13.711-21.945-13.711,21.945-13.711,21.945" transform="translate(2766 1298.332)"/><path class="i" d="M401.771-376.076h22.184l1.964-27.16H399.806l1.965,27.16" transform="translate(2766 1298.332)"/><path class="j" d="M524.693-380.79a5.049,5.049,0,0,1-5.033,5.033H438.494a5.049,5.049,0,0,1-5.033-5.033v-50.648a5.049,5.049,0,0,1,5.033-5.033H519.66a5.049,5.049,0,0,1,5.033,5.033v50.648" transform="translate(2766 1298.332)"/><path class="a" d="M486.12-404.234a7.043,7.043,0,0,1-7.043,7.043,7.044,7.044,0,0,1-7.045-7.043,7.043,7.043,0,0,1,7.045-7.043,7.042,7.042,0,0,1,7.043,7.043" transform="translate(2766 1298.332)"/><path class="k" d="M548.871-365.582a135.183,135.183,0,0,1-21.015,10.091c-21.871,8.18-40.268,7.551-53.857,7.123a4.429,4.429,0,0,0-.579-.025c-.428-.025-.881-.025-1.308-.049-22.5-.932-45.276-5.789-65.308-16.284-.529-.276-1.057-.553-1.587-.855H548.871" transform="translate(2766 1298.332)"/></g></svg>